<?xml version="1.0" encoding="utf-8"?>
<!-- Generator: Adobe Illustrator 23.0.1, SVG Export Plug-In . SVG Version: 6.00 Build 0)  -->
<svg version="1.1" id="Capa_1" xmlns="http://www.w3.org/2000/svg" xmlns:xlink="http://www.w3.org/1999/xlink" x="0px" y="0px"
	 viewBox="0 0 218.5 218.5" style="enable-background:new 0 0 218.5 218.5;" xml:space="preserve">
<g>
	<g>
		<path d="M215,44.4H3.4c-1.9,0-3.4,1.5-3.4,3.4v122.9c0,1.9,1.5,3.4,3.4,3.4H215c1.9,0,3.4-1.5,3.4-3.4V47.8
			C218.5,45.9,216.9,44.4,215,44.4z M211.6,167.3H6.8V51.2h204.8V167.3z"/>
	</g>
</g>
<g>
	<g>
		<path d="M30.7,75.1H3.4c-1.9,0-3.4,1.5-3.4,3.4v61.4c0,1.9,1.5,3.4,3.4,3.4h27.3c1.9,0,3.4-1.5,3.4-3.4V78.5
			C34.1,76.6,32.6,75.1,30.7,75.1z M27.3,136.5H6.8V81.9h20.5V136.5z"/>
	</g>
</g>
<g>
	<g>
		<path d="M215,75.1h-27.3c-1.9,0-3.4,1.5-3.4,3.4v61.4c0,1.9,1.5,3.4,3.4,3.4H215c1.9,0,3.4-1.5,3.4-3.4V78.5
			C218.5,76.6,216.9,75.1,215,75.1z M211.6,136.5h-20.5V81.9h20.5V136.5z"/>
	</g>
</g>
<path d="M112.1,74c-17.2,0-31.2,14-31.2,31.2s14,31.2,31.2,31.2s31.2-14,31.2-31.2C143.2,88,129.3,74.1,112.1,74z M113.2,83.1
	l10.8-4.3c1.2,0.6,2.4,1.2,3.6,1.9l0,0c1.1,0.7,2.2,1.5,3.2,2.4l0.1,0.1c0.5,0.4,0.9,0.8,1.3,1.2c0.1,0.1,0.1,0.1,0.2,0.2
	c0.5,0.4,0.9,0.9,1.3,1.4c0,0,0.1,0.1,0.1,0.1c0.4,0.4,0.7,0.8,1.1,1.3c0.1,0.1,0.2,0.2,0.2,0.3c0.4,0.5,0.7,1,1.1,1.5l-2.2,9.2
	l-10.6,3.6l-10.2-8.2L113.2,83.1z M89,87.5c0.1-0.1,0.2-0.2,0.2-0.3c0.3-0.4,0.7-0.9,1.1-1.3c0,0,0.1-0.1,0.1-0.1
	c0.4-0.5,0.9-0.9,1.3-1.4c0.1-0.1,0.1-0.1,0.2-0.2c0.4-0.4,0.9-0.8,1.3-1.2l0.1-0.1c1-0.9,2.1-1.6,3.2-2.3l0,0
	c1.1-0.7,2.3-1.4,3.5-1.9l10.9,4.3v10.5l-10.2,8.2l-10.6-3.5L87.9,89C88.3,88.5,88.6,88,89,87.5z M87.8,121.3
	c-0.3-0.5-0.6-0.9-0.9-1.4l-0.1-0.1c-0.3-0.5-0.5-1-0.8-1.5l0,0c-0.5-1-1-2.1-1.4-3.2v0c-0.2-0.5-0.4-1.1-0.5-1.6l-0.1-0.2
	c-0.1-0.5-0.3-1-0.4-1.5c0-0.1,0-0.1,0-0.1c-0.3-1.2-0.4-2.3-0.5-3.5l6.3-7.6l10.6,3.5l3.1,12.3l-5,6.7L87.8,121.3z M119,133.6
	c-0.5,0.1-1.1,0.2-1.6,0.3c-0.1,0-0.2,0-0.2,0c-0.5,0.1-0.9,0.2-1.4,0.2c-0.1,0-0.2,0-0.4,0c-0.4,0-0.9,0.1-1.3,0.1
	c-0.1,0-0.3,0-0.4,0c-0.6,0-1.1,0.1-1.7,0.1c-0.5,0-1,0-1.5,0c-0.1,0-0.1,0-0.2,0c-0.5,0-0.9-0.1-1.4-0.1l-0.1,0
	c-1-0.1-2-0.3-2.9-0.5l-6.1-9.6l5-6.6h14.5l5,6.7L119,133.6z M140.5,111.5c0,0,0,0.1,0,0.1c-0.1,0.5-0.2,1-0.4,1.5l-0.1,0.2
	c-0.2,0.5-0.3,1.1-0.5,1.6v0c-0.4,1.1-0.8,2.2-1.4,3.2l0,0c-0.2,0.5-0.5,1-0.8,1.5l-0.1,0.1c-0.3,0.5-0.6,1-0.9,1.4l-10.3,1.6
	l-5.1-6.7l3.1-12.3l10.6-3.5l6.3,7.6C140.9,109.2,140.8,110.4,140.5,111.5z"/>
</svg>
