<?xml version="1.0" encoding="utf-8"?>
<!-- Generator: Adobe Illustrator 23.0.1, SVG Export Plug-In . SVG Version: 6.00 Build 0)  -->
<svg version="1.1" id="Capa_1" xmlns="http://www.w3.org/2000/svg" xmlns:xlink="http://www.w3.org/1999/xlink" x="0px" y="0px"
	 viewBox="0 0 512 512" style="enable-background:new 0 0 512 512;" xml:space="preserve">
<g>
	<path d="M490.5,473.9c-1.5-10.7-3.6-21.2-6.4-31.4c0-0.1,0-0.1-0.1-0.2c-9.6-35.2-26.9-67.4-50.9-94.5
		c-13.7-15.5-29.3-28.9-46.1-39.8c-9.4-6.6-38.9-20.3-51.2-24.1c19.1-17.2,34.4-38.9,43-61.1h1.6c7.4,0,16.4-3.6,23.3-9.3
		c8.6-7.1,13.3-16.8,13.3-27.3v-15.1c0-14.7-11.9-26.6-26.6-26.6h-4.1v-12.3C386.4,59.3,327.5,0,255.2,0
		c-34.9,0-67.8,13.7-92.6,38.5c-2.9,2.9-2.9,7.7,0,10.6c2.9,2.9,7.7,2.9,10.6,0c22-22,51.1-34.1,82-34.1
		c64.1,0,116.2,52.6,116.2,117.2v4.5c-26.1,0.6-57.1-2.6-84.7-8.8c-33.8-7.7-58.9-19-70.5-31.9c-2.2-2.5-6-6.6-11.5-6.4
		c-5.5,0.2-8.9,4.6-10.2,6.3c-13.5,17.2-32.2,29.9-55.6,37.9v-2.6c0-19.4,4.9-38.7,14.3-55.7c2-3.6,0.7-8.2-3-10.2
		c-3.6-2-8.2-0.7-10.2,3c-10.6,19.2-16.2,41-16.2,62.9v13.3h-4.1c-14.6,0-26.6,11.9-26.6,26.6v15.1c0,10.5,4.7,20.2,13.3,27.3
		c6.9,5.7,15.8,9.3,23.3,9.3h1.6c8.7,22.4,24.2,44.3,43.5,61.5c-12.3,3.9-24.4,9-36,15.4c-0.4,0.2-0.9,0.4-1.3,0.7
		c0,0-0.1,0-0.1,0.1c-3.7,2.1-7.4,4.2-11,6.5c-0.5,0.3-1.1,0.6-1.5,1c-16.3,10.5-31.4,23.4-44.8,38.2
		c-31.8,35.3-52.1,79.5-58.8,127.7c-1.5,11-2.2,23.4,4.8,31.3c3.9,4.5,9.5,6.7,16.6,6.7c0.1,0,0.3,0,0.4,0h425.4
		c7.3,0.1,13-2.2,17-6.7C492.7,497.4,492,485,490.5,473.9L490.5,473.9z M386.4,185.3v-25.8h4.1c6.4,0,11.6,5.2,11.6,11.6v15.1
		c0,12.2-11.1,19.4-18.4,21.2C385.5,200,386.4,192.5,386.4,185.3L386.4,185.3z M108.3,186.2v-15.1c0-6.4,5.2-11.6,11.6-11.6h4.1
		v25.8c0,7.2,0.9,14.6,2.7,22.1C119.4,205.6,108.3,198.5,108.3,186.2z M71.9,381.1V437l-26.7,0.1C51.6,416.9,60.6,398.1,71.9,381.1
		L71.9,381.1z M122.3,497H43.2c-4.1,0.1-5.2-1.2-5.6-1.6c-2.2-2.5-2.6-9.1-1.2-19.4c1.1-8.1,2.7-16.1,4.6-23.9l81.4-0.2L122.3,497
		L122.3,497z M122.3,436.9L86.9,437v-75.9c10.6-12.6,22.5-23.8,35.5-33.4V436.9z M164.1,250.6c-16-21.4-25.2-45.2-25.2-65.3v-35.8
		c27.9-8.6,50.2-23.1,66.4-43.2c28.4,31,106.3,45.4,160,45.4c2.1,0,4.1,0,6-0.1v33.6c0,20.1-9.2,44-25.2,65.3
		c-8.9,11.8-19.2,22.1-30.4,30.5c-0.2,0.1-0.4,0.3-0.6,0.5c-9.8,7.2-20.1,13-30.8,17c-10.9,4.1-20.2,6-29.2,5.9c-0.1,0-0.1,0-0.2,0
		c-9,0.1-18.2-1.8-29.2-5.9c-10.5-3.9-20.7-9.5-30.3-16.6c-0.2-0.1-0.3-0.3-0.5-0.4C183.7,273.2,173.2,262.7,164.1,250.6
		L164.1,250.6z M172.8,497h-35.5V317.6c0.6-0.4,1.3-0.8,1.9-1.2l32.4,48.8c0.4,0.6,0.8,1.1,1.2,1.6V497z M223.3,497h-35.5V372.8
		c2.3-0.7,5.1-2.2,7.7-5.4c7-8.7,16.7-17.8,27.8-26.5V497z M184.3,357.3c-0.1-0.1-0.1-0.2-0.2-0.3l-31.6-47.7
		c11.7-5.7,24-10.3,36.8-13.4c9.9,7,20.4,12.7,31.3,16.8c3.9,1.5,7.6,2.7,11.2,3.6C212.8,328.7,195.8,343.3,184.3,357.3z M324.2,497
		h-35.5v-57c0-4.1-3.4-7.5-7.5-7.5s-7.5,3.4-7.5,7.5v57h-35.5V330c5.5-3.7,11.2-7.1,16.9-10.3c6.3,3.5,12.5,7.4,18.6,11.4v74.3
		c0,4.1,3.4,7.5,7.5,7.5s7.5-3.4,7.5-7.5v-63.3c10.4,8.3,19.5,17,26.2,25.2c3.2,4,6.7,5.4,9.3,5.8V497z M326,357.3
		c-10-12.2-24.2-24.8-40.3-36.1c-0.2-0.1-0.3-0.2-0.5-0.3c-2.2-1.6-4.5-3.1-6.8-4.6c3.6-1,7.3-2.2,11.2-3.6
		c11.1-4.1,21.8-10,31.8-17.1c0.5,0.1,1,0.3,1.5,0.4c12.2,3.1,24,7.4,35.2,12.8l-32,48.2C326.1,357.1,326.1,357.2,326,357.3
		L326,357.3z M374.7,497h-35.5V364.5l32.3-48.7c1.1,0.6,2.1,1.3,3.2,1.9V497z M440.1,381.4c11.2,17,20.3,35.7,26.7,55.6h-26.7V381.4
		z M389.7,327.9c13,9.6,24.9,20.9,35.5,33.5v75.7h-35.5V327.9z M474.4,495.4c-0.4,0.4-1.5,1.7-5.7,1.6h-79v-44.9h81.4
		c1.9,7.8,3.5,15.8,4.6,23.9C477.1,486.3,476.7,492.8,474.4,495.4z"/>
</g>
</svg>
