<svg id="Capa_1" enable-background="new 0 0 512 512" height="512" viewBox="0 0 512 512" width="512" xmlns="http://www.w3.org/2000/svg"><g><path d="m505.394 137.983c4.26-4.245 6.606-9.9 6.606-15.923 0-12.407-10.093-22.5-22.5-22.5h-267.026c.429-1.813.656-3.689.656-5.6 0-12.655-9.889-23.225-22.512-24.063l-102.011-6.792c-2.383-.255-7.999-.695-12.519-.682h-78.588c-4.142 0-7.5 3.358-7.5 7.5s3.358 7.5 7.5 7.5h78.587c.073-.135 10.459.566 11.224.627 12.85 1.41 25.426 5.209 36.888 11.215l24.021 12.587 53.636 30.967c3.967 2.262 5.374 7.533 3.082 11.502-2.284 3.956-7.561 5.382-11.502 3.082l-52.447-30.28c-3.535-2.048-8.162-.864-10.245 2.745-2.048 3.549-.811 8.208 2.745 10.245l44.09 25.456c3.966 2.262 5.374 7.534 3.082 11.502-2.322 4.021-7.481 5.402-11.502 3.082l-34.411-19.867c-3.588-2.072-8.174-.842-10.245 2.745-2.038 3.531-.821 8.206 2.745 10.245l25.393 14.661c3.968 2.262 5.373 7.532 3.082 11.502-2.283 3.955-7.561 5.383-11.502 3.082l-15.713-9.072h-.001l-19.357-11.176c-3.587-2.073-8.174-.843-10.245 2.745-2.071 3.587-.842 8.174 2.745 10.245l24.732 14.279c3.967 2.262 5.373 7.532 3.082 11.502-2.297 3.979-7.564 5.382-11.541 3.059l-81.924-46.637c-9.81-5.584-20.961-8.536-32.249-8.536h-6.25c-4.142 0-7.5 3.358-7.5 7.5s3.358 7.5 7.5 7.5h6.249c8.69 0 17.275 2.272 24.828 6.572l81.884 46.614c10.927 6.373 25.639 2.434 31.992-8.572 1.808-3.132 2.843-6.562 3.087-10.066 9.185 1.151 18.529-3.495 23.173-11.538 1.919-3.323 2.969-6.983 3.124-10.71 8.639.552 17.217-3.695 21.814-11.657 1.978-3.426 3.034-7.209 3.137-11.056 2.327.089 4.621-.166 6.92-.781 6.042-1.619 11.093-5.494 14.221-10.912s3.958-11.729 2.34-17.771c-1.619-6.043-5.495-11.093-10.912-14.221l-8.458-4.883c.221-.126 278.602-.385 278.602-.385 4.136 0 7.5 3.364 7.5 7.5 0 4.061-3.426 7.52-7.5 7.5h-236.231c-4.142 0-7.5 3.358-7.5 7.5s3.358 7.5 7.5 7.5h11.595c18.662 35.273 25.964 68.871 21.697 99.922-5.537 40.303-27.879 59.586-31.912 101.47-3.13 32.512 4.967 66.097 24.069 99.822 1.332 2.351 3.824 3.804 6.526 3.804h209.235c5.603.046 9.287-6.32 6.526-11.196-12.452-21.985-19.878-43.919-22.073-65.192-.425-4.12-4.11-7.11-8.23-6.69-4.12.425-7.116 4.11-6.69 8.23 2.032 19.686 8.078 39.767 18.005 59.849h-87.728c-16.042-29.692-22.804-59.005-20.091-87.188 1.994-20.702 8.483-34.888 15.354-49.906.064-.14.128-.281.192-.42h88.139c-6.182 13.763-11.092 21.192-13.049 41.515-.397 4.123 2.624 7.787 6.747 8.184.245.024.487.035.728.035 3.818 0 7.083-2.903 7.457-6.782 1.994-20.702 7.534-27.513 14.405-42.532 6.666-14.571 13.559-29.638 16.488-50.959 4.416-32.144-2.226-66.418-19.749-102.032 5.474-.344 10.579-2.611 14.483-6.515zm-299.946-37.578c-1.712 1.718-3.995 2.665-6.428 2.665h-8.69l-24.743-14.286c-.089-.051-.178-.101-.269-.148l-13.244-6.94 47.549 3.167c4.77.317 8.507 4.313 8.507 9.097 0 2.433-.946 4.716-2.682 6.445zm171.957 334.173h-87.738c-16.042-29.692-22.799-59.006-20.085-87.188 1.994-20.702 8.483-34.888 15.354-49.906.064-.14.128-.281.192-.42h88.139c-6.182 13.763-12.041 28.567-13.998 48.889-2.784 28.911 3.319 58.672 18.136 88.625zm13.775-190.096c-2.06 14.992-6.278 26.475-11.134 37.581h-88.34c4.156-10.239 7.792-21.536 9.716-35.539 4.413-32.124-2.218-66.374-19.715-101.964h87.776c18.662 35.273 25.963 68.871 21.697 99.922zm104.618 0c-2.06 14.992-6.279 26.476-11.134 37.581h-88.339c4.156-10.239 7.792-21.536 9.716-35.539 4.413-32.124-2.218-66.374-19.715-101.964h87.776c18.66 35.273 25.962 68.871 21.696 99.922z"/></g></svg>