<?xml version="1.0" encoding="utf-8"?>
<!-- Generator: Adobe Illustrator 23.0.1, SVG Export Plug-In . SVG Version: 6.00 Build 0)  -->
<svg version="1.1" id="Capa_1" xmlns="http://www.w3.org/2000/svg" xmlns:xlink="http://www.w3.org/1999/xlink" x="0px" y="0px"
	 viewBox="0 0 496 496" style="enable-background:new 0 0 496 496;" xml:space="preserve">
<style type="text/css">
	.st0{stroke:#000000;stroke-width:0.25;stroke-miterlimit:10;}
	.st1{fill:none;}
</style>
<g>
	<g>
		<path class="st0" d="M375.4,310.4L304,290v-22.1c13.7-11.3,23.8-26.7,28.7-44.3c19.8-2.4,35.3-19.1,35.3-39.5v-63.6
			c0-4.3,1-8.6,2.9-12.4c2.2-4.3,5.4-8,9.4-10.6l25.5-17l-15.4-11.6c-13.8-10.4-30.2-17.1-47.2-19.7c7.5-8,16.9-14.1,27.3-17.6
			l22.8-7.6l-36.8-12.3c-22.6-7.5-46.7-6.3-68.4,3.4l-8-4C265.6,3.8,249.3,0,233.1,0C175.1,0,128,47.1,128,105.1V184
			c0,20.4,15.5,37.2,35.3,39.5c4.9,17.6,15,33,28.7,44.3V290l-71.4,20.4c-23.9,6.8-40.6,29-40.6,53.8V496h336V364.2
			C416,339.3,399.3,317.2,375.4,310.4z M335.7,206.6c0.2-2.2,0.3-4.4,0.3-6.6v-38.5c9.3,3.3,16,12.1,16,22.5
			C352,194.5,345.1,203.4,335.7,206.6z M144,184c0-10.4,6.7-19.2,16-22.5V200c0,2.2,0.2,4.4,0.3,6.6C150.9,203.4,144,194.5,144,184z
			 M160,120v24.8c-5.9,1.2-11.3,3.9-16,7.4v-47.1C144,56,184,16,233.1,16c13.8,0,27.5,3.3,39.8,9.4l15.1,7.5l3.6-1.8
			c17.2-8.6,36.6-10.6,55.1-5.7c-9.2,6-17.2,13.9-23.4,23.1L313,64h15c17.8,0,35.5,5.5,50.1,15.7l-6.7,4.4
			c-6.3,4.2-11.4,10-14.8,16.8c-3,6-4.6,12.8-4.6,19.5v31.8c-4.7-3.5-10.1-6.2-16-7.4v-38.9l-17.1,10.3
			c-18.1,10.9-37.5,19.1-57.8,24.6C263,134,264,127,264,120v-14.1l-12.1,7.3c-23,13.8-49.1,21.6-75.9,22.7V120H160z M176,200v-48.1
			c24.4-0.9,48.3-6.9,70.2-17.5c-1.1,4.3-2.6,8.4-4.6,12.4l-8.2,16.3l16-3.2c24.8-5,48.4-13.6,70.4-25.9v66c0,39.7-32.3,72-72,72
			S176,239.7,176,200z M288,278.3v16.5c-1.4,4.2-9.8,25.2-40,25.2c-30.1,0-38.6-20.8-40-25.2v-16.5c12,6.2,25.6,9.7,40,9.7
			C262.4,288,276,284.4,288,278.3z M136,480H96v-48h40V480z M400,480h-40v-48h40V480z M400,416h-40v-48h-16v112H152V368h-16v48H96
			v-51.8c0-17.8,11.9-33.6,29-38.4l70.2-20.1C201.7,319,217.8,336,248,336s46.3-17,52.8-30.3l70.2,20.1c17.1,4.9,29,20.7,29,38.4
			V416z"/>
	</g>
</g>
<rect x="206.5" y="363.9" class="st1" width="72" height="79.5"/>
</svg>
