<svg id="Capa_1" enable-background="new 0 0 512 512" height="512" viewBox="0 0 512 512" width="512" xmlns="http://www.w3.org/2000/svg"><g><path d="m90.333 347.9c-4.142 0-7.5 3.357-7.5 7.5v33.133c0 4.143 3.358 7.5 7.5 7.5s7.5-3.357 7.5-7.5v-33.133c0-4.142-3.357-7.5-7.5-7.5z"/><path d="m7.5 114.4c4.142 0 7.5-3.357 7.5-7.5v-49.7c0-4.143-3.358-7.5-7.5-7.5s-7.5 3.357-7.5 7.5v49.7c0 4.143 3.358 7.5 7.5 7.5z"/><path d="m53.45 126.712c1.181.682 2.471 1.006 3.743 1.006 2.592 0 5.113-1.345 6.502-3.751l24.85-43.041c2.071-3.587.842-8.174-2.745-10.245-3.588-2.07-8.174-.843-10.245 2.745l-24.85 43.041c-2.071 3.587-.842 8.174 2.745 10.245z"/><path d="m87.088 160.35c1.389 2.406 3.91 3.751 6.502 3.751 1.272 0 2.562-.324 3.743-1.006l43.041-24.85c3.587-2.071 4.816-6.658 2.745-10.245-2.071-3.588-6.658-4.815-10.245-2.745l-43.041 24.85c-3.587 2.071-4.816 6.658-2.745 10.245z"/><path d="m496.217 16.566h-232.717v-1.066c0-8.547-6.953-15.5-15.5-15.5h-17.133c-8.547 0-15.5 6.953-15.5 15.5v225.568c-6.998-5.705-15.921-9.134-25.633-9.134h-16.567c-4.142 0-7.5 3.357-7.5 7.5v27.2c0 4.143 3.358 7.5 7.5 7.5s7.5-3.357 7.5-7.5v-19.7h9.067c14.134 0 25.633 11.499 25.633 25.633v42.2h-9.067c-4.142 0-7.5 3.357-7.5 7.5s3.358 7.5 7.5 7.5h16.567 33.133 49.7c4.999 0 9.066 4.067 9.066 9.066 0 5-4.067 9.067-9.066 9.067h-24.85-41.417-16.567c-4.142 0-7.5 3.357-7.5 7.5s3.358 7.5 7.5 7.5h16.567 41.417c5 0 9.067 4.067 9.067 9.066s-4.067 9.066-9.067 9.066h-57.983c-4.142 0-7.5 3.357-7.5 7.5s3.358 7.5 7.5 7.5h57.983c5 0 9.067 4.067 9.067 9.066 0 5-4.067 9.067-9.067 9.067h-8.283-49.7c-4.142 0-7.5 3.357-7.5 7.5s3.358 7.5 7.5 7.5h49.7c5 0 9.067 4.067 9.067 9.066s-4.067 9.066-9.067 9.066h-16.567-33.133-.001-16.566c-14.134 0-25.633-11.499-25.633-25.633v-16.564c0-4.143-3.358-7.5-7.5-7.5h-42.2v-51.267h42.2c4.142 0 7.5-3.357 7.5-7.5v-42.199c0-4.143-3.358-7.5-7.5-7.5s-7.5 3.357-7.5 7.5v34.699h-34.7v-.783c0-8.703-7.081-15.783-15.784-15.783h-49.7c-8.703 0-15.783 7.08-15.783 15.783v.783h-42.2c-4.142 0-7.5 3.357-7.5 7.5v66.267c0 4.143 3.358 7.5 7.5 7.5h42.2v.784c0 8.703 7.08 15.783 15.783 15.783h49.7c8.703 0 15.784-7.08 15.784-15.783v-.784h34.7v9.067c0 22.405 18.228 40.633 40.633 40.633h9.067v34.2c0 8.547 6.953 15.5 15.5 15.5h17.133c8.547 0 15.5-6.953 15.5-15.5v-34.2h9.066c13.271 0 24.067-10.796 24.067-24.066 0-4.557-1.273-8.822-3.483-12.458 7.04-4.204 11.766-11.897 11.766-20.675 0-6.415-2.528-12.248-6.635-16.566 4.106-4.319 6.635-10.151 6.635-16.566 0-3.206-.635-6.266-1.779-9.066h2.562c13.271 0 24.066-10.797 24.066-24.067 0-13.271-10.796-24.066-24.066-24.066h-42.2v-84.4h184.583c4.143 0 7.5-3.357 7.5-7.5s-3.357-7.5-7.5-7.5h-60.332v-84.399h109.25v83.616c0 .432-.352.783-.783.783h-18.134c-4.143 0-7.5 3.357-7.5 7.5s3.357 7.5 7.5 7.5h18.134c8.703 0 15.783-7.08 15.783-15.783v-182.237c0-8.704-7.08-15.784-15.783-15.784zm-481.217 381.034v-51.267h34.7v51.267zm100.967 15.784c0 .432-.352.783-.784.783h-49.7c-.432 0-.783-.352-.783-.783v-8.284-66.267-8.283c0-.432.352-.783.783-.783h49.7c.432 0 .784.352.784.783zm132.533 83.116c0 .275-.224.5-.5.5h-17.133c-.276 0-.5-.225-.5-.5v-34.2h18.133zm124.25-464.934v84.4h-109.25v-84.4zm-142.383 283.201v-42.2-257.067c0-.275.224-.5.5-.5h17.133c.276 0 .5.225.5.5v8.566 198.8 91.9h-18.133zm142.383-99.401h-109.25v-84.399h109.25zm15-99.399v-84.4h108.467c.432 0 .783.352.783.783v83.617z"/></g></svg>