<svg id="Capa_1" enable-background="new 0 0 512.275 512.275" height="512" viewBox="0 0 512.275 512.275" width="512" xmlns="http://www.w3.org/2000/svg"><g><path d="m164.347 512.275c-3.625 0-6.814-2.635-7.398-6.328l-24.372-153.99-91.905 27.963c-2.479.757-5.171.176-7.123-1.531-1.364-1.193-33.412-29.754-33.412-74.475 0-30.441 19.802-112.767 22.985-125.801l-11.764-59.746c-3.421-17.375 5.856-34.928 22.06-41.736 2.548-1.071 5.169-1.962 7.833-2.674v-58.683c0-8.271 6.729-15 15-15h50.489c8.271 0 15 6.729 15 15v98.318c0 8.271-6.729 15-15 15h-18.057l-10.127 49.224c1.391 4.146 4.856 14.563 8.99 27.687 1.245 3.951-.949 8.163-4.9 9.407-3.951 1.245-8.163-.95-9.407-4.899-5.311-16.857-9.498-29.183-9.539-29.305-.43-1.264-.515-2.619-.246-3.927l11.085-53.881c-2.009-2.18-5.519-3.95-9.539-4.724-5.305-1.018-9.411.012-11.124 1.486-3.14 2.703-7.875 2.35-10.578-.788-2.703-3.139-2.35-7.874.789-10.577 5.597-4.821 14.473-6.639 23.746-4.851 3.617.695 6.995 1.88 9.996 3.461l1.631-7.927c.682-3.313-.873-6.65-3.78-8.117-10.329-5.209-24.637-5.367-36.453-.402-9.674 4.064-15.206 14.582-13.152 25.009l12.084 61.373c.211 1.075.185 2.184-.078 3.248-.229.929-22.945 93.242-22.945 123.824 0 30.472 18.249 52.758 25.441 60.355l23.757-7.229c.23-.097.466-.183.709-.257 1.373-.436 31.421-10.487 31.421-52.87 0-7.184-2.6-24.615-14.987-66.865-1.166-3.975 1.112-8.142 5.087-9.308 3.973-1.164 8.142 1.111 9.307 5.087 2.227 7.598 4.219 14.669 5.972 21.205 14.075-8.488 30.698-12.781 49.569-12.781h12.162c-16.728-21.274-20.09-54.123-6.536-80.576-5.48-8.759-8.352-19.292-8.352-27.875 0-10.85 4.685-20.286 12.532-25.244 4.883-3.085 10.526-4.253 16.468-3.496v-22.081c0-.014 0-.027 0-.041v-13.133c0-20.23 8.731-38.357 24.585-51.042 14.11-11.288 33.44-17.762 53.035-17.762 50.455 0 76.906 38.483 78.007 40.121.831 1.237 1.275 2.694 1.275 4.185v37.629.046 22.08c5.939-.754 11.585.411 16.468 3.496 7.848 4.958 12.532 14.395 12.532 25.244 0 16.272-10.323 39.553-29.172 44.463-1.442 23.923-11.894 38.701-27.881 51.081v1.349c0 5.792 1.568 9.586 9.583 11.838.002.001.004.002.006.002l27.752 7.798c3.987 1.121 6.312 5.262 5.191 9.25-1.12 3.987-5.261 6.311-9.25 5.191l-22.928-6.443c-6.734 7.659-23.791 22.987-58.685 33.001-1.352.389-2.786.389-4.137 0-36.617-10.509-53.592-26.869-59.607-34.078h-43.048c-18.113 0-33.097 4.296-45.656 13.114 3.795 15.81 5.709 27.374 5.709 34.548 0 18.76-5.069 32.469-11.251 42.211l36.24-11.026c2.075-.632 4.323-.334 6.162.817s3.09 3.042 3.429 5.185l25.718 162.501c.647 4.092-2.144 7.934-6.235 8.581-.396.061-.791.091-1.181.091zm45.987-260.94c7.833 7.239 22.657 17.015 45.804 23.97 23.124-6.948 37.941-16.712 45.797-23.975-4.716-3.314-7.871-7.825-9.376-13.421-4.188 2.592-8.604 5.153-13.213 7.761-8.46 4.785-37.957 4.786-46.416.001-4.61-2.608-9.025-5.169-13.213-7.761-1.506 5.597-4.663 10.11-9.383 13.425zm-25.034-10.083h11.793c7.201-2.281 8.646-6 8.646-11.559v-1.349c-15.987-12.38-26.438-27.159-27.88-51.081-3.574-.931-6.842-2.522-9.79-4.601-9.788 24.798-2.63 55.305 17.231 68.59zm7.387-156.045v86.219c0 31.938 17.994 44.423 47.629 61.189 4.542 2.18 27.101 2.181 31.704-.032 29.575-16.734 47.569-29.219 47.569-61.157v-86.219l-26.71-25.023h-73.483zm141.902 34.103v41.704c8.625-5.232 14-18.772 14-28.213 0-5.673-2.072-10.369-5.543-12.563-2.67-1.686-5.723-1.629-8.457-.928zm-160.33-.461c-1.714 0-3.439.386-5.029 1.39-3.471 2.193-5.543 6.889-5.543 12.563 0 9.44 5.375 22.98 14 28.213v-41.705c-1.107-.284-2.265-.461-3.428-.461zm-82.49-5.256h14.972v-98.319h-50.489v56.563c9.274-.18 18.392 1.701 26.185 5.632 8.943 4.511 13.761 14.599 11.718 24.533zm124.662-68.409h79.413c1.904 0 3.737.725 5.128 2.026l18.617 17.442v-17.897c-5.354-6.932-27.124-31.755-64.283-31.755-29.083 0-59.917 17.311-62.452 49.495l18.449-17.285c1.39-1.302 3.223-2.026 5.128-2.026zm131.488 467.09c-1.945 0-3.836-.758-5.25-2.145-1.741-1.706-2.544-4.151-2.153-6.558l25.218-155.347c.664-4.089 4.517-6.857 8.605-6.201 4.088.664 6.864 4.517 6.201 8.605l-3.422 21.077 5.237 5.141 14.267-10.623c3.324-2.472 8.021-1.786 10.495 1.536s1.786 8.021-1.536 10.495l-12.391 9.226 10.896 10.695 49.881-37.143c-2.643-4.306-5.332-8.596-8.044-12.819l-17.072 12.713c-3.321 2.472-8.02 1.787-10.495-1.536-2.474-3.322-1.786-8.021 1.536-10.495l17.772-13.234c-10.859-16.089-21.872-30.724-32.015-41.753-8.901-9.681-23.819-18.332-38.935-22.579-3.987-1.121-6.312-5.262-5.191-9.25 1.121-3.987 5.261-6.311 9.25-5.191 17.644 4.958 35.238 15.253 45.917 26.867 35.822 38.955 78.828 115.707 94.861 153.868 1.094 2.604.632 5.601-1.194 7.755-.632.746-15.843 18.455-45.894 33.352-39.072 19.368-112.107 32.857-115.197 33.422-.448.082-.899.122-1.347.122zm14.228-48.342-5.097 31.394c21.728-4.474 72.028-15.796 100.752-30.034 19.868-9.849 32.52-20.959 37.988-26.341-7.658-17.377-19.948-41.019-34.059-64.995l-46.811 34.855 2.915 2.861c1.563 1.534 2.378 3.677 2.229 5.862-.148 2.186-1.246 4.197-3.003 5.506zm12.028-74.095-8.574 52.821 35.477-26.417zm-110.537-168.566h-15c-8.271 0-15-6.729-15-15v-11.865c-3.749.891-7.619-1.216-8.851-4.94-1.302-3.933.831-8.176 4.763-9.478 14.91-4.936 38.268-4.936 53.177 0 3.932 1.302 6.064 5.545 4.763 9.478-1.233 3.724-5.102 5.835-8.852 4.94v11.865c0 8.271-6.729 15-15 15zm-15-29.693v14.692h15v-14.692c-4.916-.394-10.088-.392-15 0zm45.689-51.97h-20.531c-4.143 0-7.5-3.357-7.5-7.5s3.357-7.5 7.5-7.5h20.531c4.143 0 7.5 3.357 7.5 7.5s-3.357 7.5-7.5 7.5zm-57.511 0h-20.531c-4.142 0-7.5-3.357-7.5-7.5s3.358-7.5 7.5-7.5h20.531c4.142 0 7.5 3.357 7.5 7.5s-3.358 7.5-7.5 7.5zm36.972-29.999c-3.518 0-6.656-2.485-7.354-6.066-.792-4.066 1.861-8.004 5.927-8.796l20.531-4c4.074-.796 8.005 1.862 8.796 5.927.792 4.066-1.861 8.004-5.927 8.796l-20.531 4c-.484.094-.967.139-1.442.139zm-36.964 0c-.476 0-.958-.045-1.442-.14l-20.531-4c-4.066-.792-6.72-4.729-5.927-8.796.792-4.065 4.732-6.721 8.795-5.927l20.531 4c4.066.792 6.72 4.729 5.928 8.796-.698 3.582-3.837 6.067-7.354 6.067z"/></g></svg>