<?xml version="1.0" encoding="utf-8"?>
<!-- Generator: Adobe Illustrator 23.0.1, SVG Export Plug-In . SVG Version: 6.00 Build 0)  -->
<svg version="1.1" id="Layer_1" xmlns="http://www.w3.org/2000/svg" xmlns:xlink="http://www.w3.org/1999/xlink" x="0px" y="0px"
	 viewBox="0 0 100 125" style="enable-background:new 0 0 100 125;" xml:space="preserve">
<path d="M50,10c-22.1,0-40,17.9-40,40s17.9,40,40,40s40-17.9,40-40S72.1,10,50,10z M50,88c-10.4,0-19.9-4.2-26.8-11.1
	C23.4,68.3,34.4,61,43.4,61h13.2c9,0,20,7.3,20.2,15.9C69.9,83.8,60.4,88,50,88z M78.6,75c-1.6-9-12.7-16-22-16H43.4
	c-9.3,0-20.4,7-22,16C15.6,68.3,12,59.6,12,50c0-21,17-38,38-38s38,17,38,38C88,59.6,84.4,68.3,78.6,75z"/>
<path d="M50,20.7c-9.3,0-16.9,7.6-16.9,16.9S40.7,54.6,50,54.6S66.9,47,66.9,37.7S59.3,20.7,50,20.7z M50,52.6
	c-8.2,0-14.9-6.7-14.9-14.9c0-8.2,6.7-14.9,14.9-14.9s14.9,6.7,14.9,14.9C64.9,45.9,58.2,52.6,50,52.6z"/>
</svg>
