<?xml version="1.0" encoding="utf-8"?>
<!-- Generator: Adobe Illustrator 23.0.1, SVG Export Plug-In . SVG Version: 6.00 Build 0)  -->
<svg version="1.1" id="Layer_1" xmlns="http://www.w3.org/2000/svg" xmlns:xlink="http://www.w3.org/1999/xlink" x="0px" y="0px"
	 viewBox="0 0 52 65" style="enable-background:new 0 0 52 65;" xml:space="preserve">
<g>
	<path d="M49.9,31.6L44,24.6L37,30.4l1.3,1.5l4.5-3.7c-1.1,9.6-9.3,17.2-19.3,17.2C12.8,45.4,4.1,36.7,4.1,26S12.8,6.6,23.5,6.6
		c3.2,0,6.4,0.8,9.2,2.3l1-1.8c-3.1-1.7-6.6-2.6-10.2-2.6C11.7,4.6,2.1,14.2,2.1,26c0,11.8,9.6,21.4,21.4,21.4
		c10.9,0,20-8.2,21.2-18.8l3.6,4.4L49.9,31.6z"/>
	<polygon points="23.1,9 23.1,27 35.1,27 35.1,25 25.1,25 25.1,9 	"/>
</g>
</svg>
