<?xml version="1.0" encoding="utf-8"?>
<!-- Generator: Adobe Illustrator 23.0.1, SVG Export Plug-In . SVG Version: 6.00 Build 0)  -->
<svg version="1.1" id="Layer_1" xmlns="http://www.w3.org/2000/svg" xmlns:xlink="http://www.w3.org/1999/xlink" x="0px" y="0px"
	 viewBox="0 0 100 125" style="enable-background:new 0 0 100 125;" xml:space="preserve">
<title>07</title>
<g>
	<path d="M33.5,39c-4.9,0-9.3,3.3-10.6,8H10.5v6h12.4c1.6,5.9,7.7,9.3,13.5,7.7c3.7-1,6.6-3.9,7.7-7.7h45.4v-6H44.1
		C42.8,42.3,38.4,39,33.5,39z M33.5,55c-2.8,0-5-2.2-5-5s2.2-5,5-5s5,2.2,5,5S36.3,55,33.5,55z"/>
	<path d="M66.5,11.5c-4.9,0-9.3,3.3-10.6,8H10.5v6h45.4c1.6,5.9,7.7,9.3,13.5,7.7c3.7-1,6.6-3.9,7.7-7.7h12.4v-6H77.1
		C75.8,14.8,71.4,11.5,66.5,11.5z M66.5,27.5c-2.8,0-5-2.2-5-5s2.2-5,5-5c2.8,0,5,2.2,5,5S69.3,27.5,66.5,27.5z"/>
	<path d="M66.5,66.5c-4.9,0-9.3,3.3-10.6,8H10.5v6h45.4c1.6,5.9,7.7,9.3,13.5,7.7c3.7-1,6.6-3.9,7.7-7.7h12.4v-6H77.1
		C75.8,69.8,71.4,66.5,66.5,66.5z M66.5,82.5c-2.8,0-5-2.2-5-5s2.2-5,5-5c2.8,0,5,2.2,5,5S69.3,82.5,66.5,82.5z"/>
</g>
</svg>
